# xmcd
#
# Track frame offsets: 
#        150
#        17620
#        34952
#        56315
#        80422
#        103377
#        120525
#        140935
#        157222
#        178555
#        198082
#
# Disc length: 3006 seconds
#
# Revision: 3
# Processed by: cddbd v1.5.2PL0 Copyright (c) Steve Scherf et al.
# Submitted via: ExactAudioCopy v0.95b4
#
DISCID=960bbc0b
DTITLE=Ernie Hawkins - Bluesified
DYEAR=1900
DGENRE=Blues
TTITLE0=I Am A Pilgrim
TTITLE1=Slow Drag
TTITLE2=Bluesified
TTITLE3=Cucifixion/Jesus Gonna Make up My Dying Bed
TTITLE4=Riding On A Moonbeam
TTITLE5=Broke Down Engine
TTITLE6=Root Hog Or Die
TTITLE7=Hawkins Rag
TTITLE8=What You Gonna Do
TTITLE9=I Belong To The Band
TTITLE10=Amazing Grace/Tribute To Blind Willie McTell
EXTD=ID3G:   0
EXTT0=
EXTT1=
EXTT2=
EXTT3=
EXTT4=
EXTT5=
EXTT6=
EXTT7=
EXTT8=
EXTT9=
EXTT10=
PLAYORDER=
